<?xml version="1.0" encoding="UTF-8" standalone="no"?>
<!-- Created with Inkscape (http://www.inkscape.org/) -->

<svg
   xmlns:dc="http://purl.org/dc/elements/1.1/"
   xmlns:cc="http://creativecommons.org/ns#"
   xmlns:rdf="http://www.w3.org/1999/02/22-rdf-syntax-ns#"
   xmlns:svg="http://www.w3.org/2000/svg"
   xmlns="http://www.w3.org/2000/svg"
   xmlns:sodipodi="http://sodipodi.sourceforge.net/DTD/sodipodi-0.dtd"
   xmlns:inkscape="http://www.inkscape.org/namespaces/inkscape"
   version="1.1"
   id="svg2"
   xml:space="preserve"
   width="180"
   height="200"
   viewBox="0 0 180 200"
   sodipodi:docname="beef.svg"
   inkscape:version="0.92.4 (5da689c313, 2019-01-14)"><metadata
     id="metadata8"><rdf:RDF><cc:Work
         rdf:about=""><dc:format>image/svg+xml</dc:format><dc:type
           rdf:resource="http://purl.org/dc/dcmitype/StillImage" /><dc:title></dc:title></cc:Work></rdf:RDF></metadata><defs
     id="defs6"><clipPath
       clipPathUnits="userSpaceOnUse"
       id="clipPath66"><path
         d="m 3845.46,2626.21 c 43.98,43.61 71.23,104.07 71.23,170.9 0,89.49 -48.85,167.57 -121.33,209.03 24.55,42.65 38.71,92.84 38.71,146.57 0,148.29 -107.81,269.65 -244.26,279.51 l 0.01,0.67 c 0,132.91 -107.75,240.66 -240.66,240.66 -20.61,0 -40.61,-2.59 -59.7,-7.47 -33.28,80.91 -104.22,136.78 -186.35,136.78 -114.07,0 -206.54,-107.74 -206.54,-240.66 V 1749.63 c 0,-173.82 131.87,-314.71 294.54,-314.71 130.56,0 241.25,90.76 279.89,216.45 141.63,3.9 255.32,127.8 255.32,280.07 0,7.75 -0.31,15.43 -0.89,23.03 94.91,46.85 172.67,179.84 189.93,343.21 13.92,131.72 -14.75,252.32 -69.9,328.53 z"
         id="path64"
         inkscape:connector-curvature="0" /></clipPath><linearGradient
       x1="0"
       y1="0"
       x2="1"
       y2="0"
       gradientUnits="userSpaceOnUse"
       gradientTransform="matrix(1022.28,0,0,-1022.28,2896.57,2618.89)"
       spreadMethod="pad"
       id="linearGradient72"><stop
         style="stop-opacity:1;stop-color:#ff9f55"
         offset="0"
         id="stop68" /><stop
         style="stop-opacity:1;stop-color:#ffd255"
         offset="1"
         id="stop70" /></linearGradient></defs><sodipodi:namedview
     pagecolor="#ffffff"
     bordercolor="#666666"
     borderopacity="1"
     objecttolerance="10"
     gridtolerance="10"
     guidetolerance="10"
     inkscape:pageopacity="0"
     inkscape:pageshadow="2"
     inkscape:window-width="1918"
     inkscape:window-height="1020"
     id="namedview4"
     showgrid="false"
     inkscape:zoom="1.0759561"
     inkscape:cx="220.71993"
     inkscape:cy="161.07733"
     inkscape:window-x="5160"
     inkscape:window-y="1382"
     inkscape:window-maximized="0"
     inkscape:current-layer="g447" /><g
     id="g10"
     inkscape:groupmode="layer"
     inkscape:label="ink_ext_XXXXXX"
     transform="matrix(1.3333333,0,0,-1.3333333,0,200.00001)"><g
       id="g12"
       transform="scale(0.1)"><g
         id="g447"
         transform="matrix(0.64109499,0,0,0.64109424,-262.35245,-309.46901)"><g
           id="g2170"
           transform="matrix(0.988095,0,0,0.988095,-1367.3337,-935.11716)"><path
             d="m 1845.93,2125.47 c 35.31,-80.88 87.12,-142.21 145.43,-171 -0.58,-7.6 -0.89,-15.28 -0.89,-23.03 0,-152.27 113.69,-276.17 255.33,-280.07 38.62,-125.69 149.33,-216.45 279.87,-216.45 162.68,0 294.55,140.89 294.55,314.71 V 3562.2 c 0,132.92 -92.48,240.66 -206.54,240.66 -82.14,0 -153.07,-55.87 -186.36,-136.78 -19.09,4.88 -39.09,7.47 -59.69,7.47 -132.91,0 -240.67,-107.75 -240.67,-240.66 l 0.01,-0.67 c -136.43,-9.86 -244.26,-131.22 -244.26,-279.51 0,-53.73 14.17,-103.92 38.72,-146.57 -72.48,-41.46 -121.33,-119.54 -121.33,-209.03 0,-66.83 27.24,-127.29 71.23,-170.9 -45.17,-62.43 -72.56,-154.64 -73.35,-258.35 0,0 -2.29,-107.35 47.95,-242.39"
             style="fill:#ffa555;fill-opacity:1;fill-rule:nonzero;stroke:none"
             id="path16"
             inkscape:connector-curvature="0" /><g
             id="g60"><g
               id="g62"
               clip-path="url(#clipPath66)"><path
                 d="m 3845.46,2626.21 c 43.98,43.61 71.23,104.07 71.23,170.9 0,89.49 -48.85,167.57 -121.33,209.03 24.55,42.65 38.71,92.84 38.71,146.57 0,148.29 -107.81,269.65 -244.26,279.51 l 0.01,0.67 c 0,132.91 -107.75,240.66 -240.66,240.66 -20.61,0 -40.61,-2.59 -59.7,-7.47 -33.28,80.91 -104.22,136.78 -186.35,136.78 -114.07,0 -206.54,-107.74 -206.54,-240.66 V 1749.63 c 0,-173.82 131.87,-314.71 294.54,-314.71 130.56,0 241.25,90.76 279.89,216.45 141.63,3.9 255.32,127.8 255.32,280.07 0,7.75 -0.31,15.43 -0.89,23.03 94.91,46.85 172.67,179.84 189.93,343.21 13.92,131.72 -14.75,252.32 -69.9,328.53"
                 style="fill:url(#linearGradient72);fill-opacity:1;fill-rule:nonzero;stroke:none"
                 id="path74"
                 inkscape:connector-curvature="0" /></g></g><path
             d="m 3460.48,1707.67 -14.22,2.8 7.11,-1.39 -7.11,1.38 c 0.13,0.69 12.84,69.1 -28.08,118.75 -29.02,35.2 -77.89,53.06 -145.25,53.06 -69.46,0 -119.27,19.28 -148.03,57.31 -44.04,58.26 -22.09,138.23 -21.13,141.61 l 13.94,-3.95 c -0.21,-0.75 -20.91,-76.55 18.8,-128.98 25.88,-34.18 71.78,-51.5 136.42,-51.5 71.96,0 124.63,-19.67 156.53,-58.46 45.24,-55 31.61,-127.56 31.02,-130.63"
             style="fill:#ffffff;fill-opacity:1;fill-rule:nonzero;stroke:none"
             id="path90"
             inkscape:connector-curvature="0" /><path
             d="m 3272.94,1973.81 c -0.23,4.58 -4.99,113.06 67.38,189.28 44.8,47.18 109.1,71.1 191.13,71.1 72.28,0 125.47,21.16 158.11,62.88 60.86,77.84 30.73,202.88 30.42,204.13 l 14.06,3.5 c 1.34,-5.39 32.18,-133.04 -33.02,-216.49 -35.52,-45.46 -92.57,-68.51 -169.57,-68.51 -77.85,0 -138.59,-22.37 -180.53,-66.49 -68.1,-71.62 -63.57,-177.59 -63.52,-178.66 l -14.46,-0.74"
             style="fill:#ffffff;fill-opacity:1;fill-rule:nonzero;stroke:none"
             id="path92"
             inkscape:connector-curvature="0" /><path
             d="m 3554.72,2380.52 c -50.94,0 -110.71,9.75 -158.02,45.66 -53.17,40.36 -80.14,106.27 -80.14,195.91 0,93.96 -26.86,166.89 -79.85,216.74 -84.64,79.64 -208.2,73.09 -209.43,73.01 l -0.89,14.46 c 5.31,0.32 131.1,6.97 220.25,-76.92 56.01,-52.7 84.41,-129.17 84.41,-227.29 0,-84.87 25.03,-146.9 74.41,-184.38 95.58,-72.55 252.07,-30 253.64,-29.57 l 3.9,-13.95 c -3.57,-0.99 -50.19,-13.67 -108.28,-13.67"
             style="fill:#ffffff;fill-opacity:1;fill-rule:nonzero;stroke:none"
             id="path94"
             inkscape:connector-curvature="0" /><path
             d="m 3186.82,2944.28 -14.41,1.56 c 0.24,2.11 5.92,52.29 34.14,103.23 37.79,68.19 97.97,104.23 174.07,104.23 181.91,0 206.43,104.36 206.43,206.44 h 14.49 c 0,-69.64 -13.08,-118.61 -41.18,-154.09 -35.6,-44.97 -94.39,-66.83 -179.74,-66.83 -71.36,0 -125.59,-32.43 -161.18,-96.38 -26.93,-48.41 -32.56,-97.67 -32.62,-98.16"
             style="fill:#ffffff;fill-opacity:1;fill-rule:nonzero;stroke:none"
             id="path96"
             inkscape:connector-curvature="0" /><path
             d="m 3734.03,2994.13 h -0.01 l 1.06,7.17 z m -347.14,-323.21 c -16.55,-0.01 -27.86,1.89 -29.06,2.1 l 2.5,14.27 c 0.73,-0.12 74.36,-12.33 124.03,29.46 30.75,25.88 46.35,67.18 46.35,122.77 0,57.03 17.19,100.8 51.11,130.09 60.18,51.99 150.49,39.41 154.31,38.85 l -2.11,-14.33 c -1.15,0.16 -87.79,12.05 -142.8,-35.54 -30.54,-26.41 -46.02,-66.48 -46.02,-119.07 0,-60.11 -17.37,-105.17 -51.61,-133.93 -34.66,-29.11 -78.37,-34.67 -106.7,-34.67"
             style="fill:#ffffff;fill-opacity:1;fill-rule:nonzero;stroke:none"
             id="path98"
             inkscape:connector-curvature="0" /><path
             d="m 3278.43,3163.06 c -14.79,0 -111.86,2.26 -170.62,59.96 -29.08,28.55 -43.83,66.03 -43.83,111.39 0,87.64 54.47,120.23 107.13,151.76 52.31,31.29 101.71,60.86 101.71,142.91 h 14.48 c 0,-90.26 -55.28,-123.35 -108.75,-155.35 -51.46,-30.8 -100.08,-59.9 -100.08,-139.32 0,-41.3 13.27,-75.28 39.44,-101.01 57.99,-56.98 161,-55.87 162.02,-55.84 l 0.27,-14.48 c -0.26,-0.01 -0.85,-0.02 -1.77,-0.02"
             style="fill:#ffffff;fill-opacity:1;fill-rule:nonzero;stroke:none"
             id="path100"
             inkscape:connector-curvature="0" /><path
             d="m 2991.82,2271.17 h -14.5 c 0,55.86 15.5,185.8 158.98,185.8 53.84,0 93.1,22.74 116.71,67.58 17.97,34.12 19.8,68.93 19.82,69.28 l 14.47,-0.67 c -0.06,-1.53 -1.92,-37.97 -21.24,-74.91 -18.06,-34.56 -55.24,-75.77 -129.76,-75.77 -125.71,0 -144.48,-107.33 -144.48,-171.31"
             style="fill:#ffffff;fill-opacity:1;fill-rule:nonzero;stroke:none"
             id="path102"
             inkscape:connector-curvature="0" /><path
             d="m 2256.32,1707.67 c -0.61,3.07 -14.23,75.63 31.01,130.64 31.9,38.78 84.56,58.45 156.53,58.45 64.64,0 110.53,17.32 136.41,51.5 39.72,52.43 19.02,128.23 18.8,128.98 l 13.95,3.95 c 0.95,-3.38 22.91,-83.35 -21.13,-141.61 -28.76,-38.03 -78.56,-57.31 -148.03,-57.31 -67.42,0 -116.32,-17.89 -145.34,-53.16 -40.94,-49.78 -28.12,-117.96 -27.99,-118.64 l -14.21,-2.8"
             style="fill:#ffffff;fill-opacity:1;fill-rule:nonzero;stroke:none"
             id="path104"
             inkscape:connector-curvature="0" /><path
             d="m 2443.85,1973.81 -14.47,0.74 c 0.05,1.07 4.59,107.04 -63.51,178.66 -41.94,44.12 -102.69,66.49 -180.52,66.49 -77.01,0 -134.06,23.05 -169.58,68.51 -65.2,83.45 -34.36,211.1 -33.03,216.49 l 14.07,-3.5 c -0.32,-1.25 -30.44,-126.29 30.43,-204.13 32.62,-41.72 85.82,-62.88 158.11,-62.88 82.02,0 146.32,-23.92 191.11,-71.1 72.38,-76.22 67.63,-184.7 67.39,-189.28"
             style="fill:#ffffff;fill-opacity:1;fill-rule:nonzero;stroke:none"
             id="path106"
             inkscape:connector-curvature="0" /><path
             d="m 2162.07,2380.52 c -58.11,0 -104.72,12.68 -108.28,13.67 l 3.9,13.95 c 1.57,-0.43 158.21,-42.91 253.69,29.61 49.34,37.48 74.35,99.5 74.35,184.34 0,98.12 28.41,174.59 84.43,227.29 89.15,83.89 214.93,77.24 220.24,76.92 l -0.88,-14.46 c -1.24,0.07 -125.04,6.5 -209.54,-73.1 -52.92,-49.85 -79.75,-122.74 -79.75,-216.65 0,-89.64 -26.97,-155.55 -80.14,-195.91 -47.31,-35.91 -107.08,-45.66 -158.02,-45.66"
             style="fill:#ffffff;fill-opacity:1;fill-rule:nonzero;stroke:none"
             id="path108"
             inkscape:connector-curvature="0" /><path
             d="m 2529.97,2944.28 c -0.05,0.49 -5.68,49.75 -32.63,98.16 -35.58,63.95 -89.8,96.38 -161.17,96.38 -85.35,0 -144.14,21.86 -179.74,66.83 -28.1,35.48 -41.19,84.45 -41.19,154.09 h 14.5 c 0,-102.08 24.52,-206.44 206.43,-206.44 76.1,0 136.28,-36.04 174.06,-104.23 28.23,-50.94 33.92,-101.12 34.15,-103.23 l -14.41,-1.56"
             style="fill:#ffffff;fill-opacity:1;fill-rule:nonzero;stroke:none"
             id="path110"
             inkscape:connector-curvature="0" /><path
             d="m 2329.9,2670.92 c -28.34,-0.01 -72.03,5.56 -106.7,34.67 -34.24,28.76 -51.61,73.82 -51.61,133.93 0,52.63 -15.51,92.71 -46.09,119.13 -55.22,47.7 -141.87,35.61 -142.74,35.48 l -2.1,14.33 c 3.81,0.56 94.13,13.14 154.31,-38.85 33.92,-29.29 51.11,-73.06 51.11,-130.09 0,-55.63 15.62,-96.96 46.44,-122.84 49.79,-41.81 123.2,-29.52 123.94,-29.39 l 2.5,-14.27 c -1.21,-0.21 -12.51,-2.1 -29.06,-2.1"
             style="fill:#ffffff;fill-opacity:1;fill-rule:nonzero;stroke:none"
             id="path112"
             inkscape:connector-curvature="0" /><path
             d="m 2438.36,3163.06 c -0.91,0 -1.51,0.01 -1.77,0.02 l 0.27,14.48 c 1.02,-0.03 104.03,-1.14 162.02,55.84 26.17,25.73 39.44,59.71 39.44,101.01 0,79.42 -48.61,108.52 -100.09,139.32 -53.46,32 -108.75,65.09 -108.75,155.35 h 14.48 c 0,-82.05 49.41,-111.62 101.71,-142.91 52.67,-31.53 107.14,-64.12 107.14,-151.76 0,-45.36 -14.75,-82.84 -43.84,-111.39 -58.76,-57.69 -155.82,-59.96 -170.61,-59.96"
             style="fill:#ffffff;fill-opacity:1;fill-rule:nonzero;stroke:none"
             id="path114"
             inkscape:connector-curvature="0" /><path
             d="m 2739.46,2271.17 h -14.49 c 0,63.98 -18.77,171.31 -144.48,171.31 -74.52,0 -111.7,41.21 -129.77,75.77 -19.3,36.94 -21.16,73.38 -21.24,74.91 l 14.48,0.67 v -0.01 0 c 0.03,-0.66 1.94,-35.31 19.82,-69.27 23.61,-44.84 62.88,-67.58 116.71,-67.58 143.48,0 158.97,-129.94 158.97,-185.8"
             style="fill:#ffffff;fill-opacity:1;fill-rule:nonzero;stroke:none"
             id="path116"
             inkscape:connector-curvature="0" /><path
             d="m 2256.32,1707.67 c -0.61,3.07 -14.23,75.63 31.01,130.64 27.01,32.84 68.92,51.98 124.83,57.07 v -14.55 c -51.24,-4.9 -89.38,-22.24 -113.64,-51.72 -40.94,-49.78 -28.12,-117.96 -27.99,-118.64 l -14.21,-2.8"
             style="fill:#ffffff;fill-opacity:1;fill-rule:nonzero;stroke:none"
             id="path122"
             inkscape:connector-curvature="0" /><path
             d="m 2412.16,2076.56 c -9.43,25.96 -23.96,53.16 -46.29,76.65 -41.94,44.12 -102.69,66.49 -180.52,66.49 -59.64,0 -107.31,13.82 -142.27,41.17 h 25.86 c 30.46,-17.73 69.4,-26.68 116.41,-26.68 82.02,0 146.32,-23.92 191.11,-71.1 14.95,-15.74 26.61,-32.86 35.7,-50.16 v -36.37 m -407.42,260.24 h -15.65 c -16.11,43.76 -16.31,90.6 -13.28,123.68 h 14.78 c -3.03,-32.91 -2.93,-80.69 14.15,-123.68"
             style="fill:#ffffff;fill-opacity:1;fill-rule:nonzero;stroke:none"
             id="path124"
             inkscape:connector-curvature="0" /><path
             d="m 2162.07,2380.52 c -58.11,0 -104.72,12.68 -108.28,13.67 l 3.9,13.95 c 0.85,-0.23 47.02,-12.75 104.33,-12.75 48.72,0 105.49,9.04 149.36,42.36 8.92,6.78 17.05,14.36 24.38,22.73 h 18.73 c -9.88,-12.95 -21.35,-24.4 -34.4,-34.3 -47.31,-35.91 -107.08,-45.66 -158.02,-45.66"
             style="fill:#ffffff;fill-opacity:1;fill-rule:nonzero;stroke:none"
             id="path126"
             inkscape:connector-curvature="0" /></g></g></g></g></svg>