<?xml version="1.0" encoding="UTF-8" standalone="no"?>
<svg
   xmlns:dc="http://purl.org/dc/elements/1.1/"
   xmlns:cc="http://creativecommons.org/ns#"
   xmlns:rdf="http://www.w3.org/1999/02/22-rdf-syntax-ns#"
   xmlns:svg="http://www.w3.org/2000/svg"
   xmlns="http://www.w3.org/2000/svg"
   id="svg1294"
   version="1.1"
   viewBox="0 0 16.933333 16.933333"
   height="64"
   width="64">
  <defs
     id="defs1288" />
  <metadata
     id="metadata1291">
    <rdf:RDF>
      <cc:Work
         rdf:about="">
        <dc:format>image/svg+xml</dc:format>
        <dc:type
           rdf:resource="http://purl.org/dc/dcmitype/StillImage" />
        <dc:title></dc:title>
      </cc:Work>
    </rdf:RDF>
  </metadata>
  <g
     transform="translate(0,-280.06667)"
     id="layer1">
    <g
       transform="matrix(0.48745317,0,0,0.48745231,-43.674864,132.53508)"
       id="g5103">
      <g
         id="g104"
         transform="matrix(0.35277777,0,0,-0.35277777,112.72724,331.86894)">
        <path
           d="M 0,0 -2.725,2.933 H -29.932 L -32.657,0 Z m 29.26,8.714 h -91.175 c 0.576,-1.416 1.967,-2.42 3.59,-2.42 h 83.996 c 1.622,0 3.011,1.004 3.589,2.42 M -61.915,62.403 H 29.26 c -0.578,1.419 -1.967,2.422 -3.589,2.422 h -83.996 c -1.623,0 -3.014,-1.003 -3.59,-2.422 M 29.547,59.042 H -62.202 V 12.074 h 91.749 z m 3.361,1.907 V 10.17 c 0,-3.99 -3.247,-7.237 -7.237,-7.237 H 1.864 L 4.589,0 h 4.084 c 0.928,0 1.681,-0.753 1.681,-1.68 0,-0.928 -0.753,-1.681 -1.681,-1.681 h -50.001 c -0.93,0 -1.681,0.753 -1.681,1.681 0,0.927 0.751,1.68 1.681,1.68 h 4.085 l 2.724,2.933 h -23.806 c -3.991,0 -7.238,3.247 -7.238,7.237 v 50.779 c 0,3.991 3.247,7.237 7.238,7.237 h 83.996 c 3.99,0 7.237,-3.246 7.237,-7.237"
           style="fill:#000000;fill-opacity:1;fill-rule:nonzero;stroke:none"
           id="path106" />
      </g>
      <g
         id="g108"
         transform="matrix(0.35277777,0,0,-0.35277777,123.04955,309.85441)">
        <path
           d="m 0,0 h -91.175 c 0.576,1.418 1.967,2.422 3.589,2.422 H -3.589 C -1.967,2.422 -0.578,1.418 0,0"
           style="fill:#3ecff1;fill-opacity:1;fill-rule:nonzero;stroke:none"
           id="path110" />
      </g>
      <g
         id="g112"
         transform="matrix(0.35277777,0,0,-0.35277777,90.88504,328.79491)">
        <path
           d="M 0,0 H 91.175 C 90.597,-1.416 89.208,-2.42 87.586,-2.42 H 3.589 C 1.967,-2.42 0.576,-1.416 0,0"
           style="fill:#3ecff1;fill-opacity:1;fill-rule:nonzero;stroke:none"
           id="path114" />
      </g>
      <g
         id="g116"
         transform="matrix(0.35277777,0,0,-0.35277777,96.520877,323.51086)">
        <path
           d="m 0,0 c 0.719,0.721 0.719,1.893 0,2.615 -0.361,0.361 -0.834,0.54 -1.309,0.54 -0.472,0 -0.945,-0.179 -1.306,-0.54 C -3.334,1.893 -3.334,0.721 -2.615,0 -1.893,-0.721 -0.721,-0.719 0,0 m 20.611,17.309 c 0.722,0.719 0.722,1.893 0,2.612 -0.36,0.361 -0.833,0.543 -1.306,0.543 -0.473,0 -0.948,-0.182 -1.306,-0.543 -0.722,-0.719 -0.722,-1.893 0,-2.612 0.719,-0.722 1.893,-0.722 2.612,0 M 41.225,0 c 0.719,0.721 0.719,1.893 0,2.615 -0.361,0.361 -0.833,0.54 -1.308,0.54 -0.473,0 -0.946,-0.179 -1.307,-0.54 -0.721,-0.722 -0.721,-1.894 0,-2.615 0.722,-0.719 1.894,-0.719 2.615,0 m 20.611,17.309 c 0.722,0.719 0.722,1.893 0,2.612 -0.36,0.361 -0.833,0.543 -1.306,0.543 -0.473,0 -0.948,-0.182 -1.306,-0.543 -0.35,-0.347 -0.542,-0.813 -0.542,-1.306 0,-0.493 0.192,-0.957 0.542,-1.306 0.719,-0.722 1.893,-0.722 2.612,0 m 2.378,4.99 c 2.03,-2.03 2.03,-5.335 0,-7.368 -1.015,-1.014 -2.351,-1.523 -3.684,-1.523 -0.842,0 -1.685,0.204 -2.447,0.609 L 44.664,3.439 C 44.969,2.76 45.121,2.03 45.121,1.3 c 0,-1.331 -0.506,-2.662 -1.521,-3.675 -1.015,-1.017 -2.348,-1.524 -3.683,-1.524 -1.334,0 -2.667,0.507 -3.684,1.524 -1.569,1.568 -1.92,3.899 -1.062,5.814 L 21.752,14.017 c -0.762,-0.405 -1.604,-0.609 -2.447,-0.609 -0.842,0 -1.685,0.204 -2.447,0.609 L 3.439,3.439 C 4.297,1.524 3.946,-0.807 2.377,-2.375 1.36,-3.392 0.027,-3.899 -1.309,-3.899 c -1.333,0 -2.666,0.507 -3.681,1.524 -2.032,2.03 -2.032,5.335 0,7.365 1.656,1.658 4.161,1.963 6.13,0.914 l 13.417,10.58 c -0.856,1.916 -0.506,4.244 1.065,5.815 2.032,2.032 5.334,2.032 7.367,0 1.57,-1.571 1.92,-3.899 1.064,-5.815 L 37.47,5.904 c 1.526,0.811 3.37,0.811 4.896,0 L 55.78,16.482 c -0.298,0.663 -0.459,1.385 -0.459,2.133 0,1.391 0.542,2.7 1.526,3.684 2.03,2.032 5.335,2.032 7.367,0"
           style="fill:#000000;fill-opacity:1;fill-rule:nonzero;stroke:none"
           id="path118" />
      </g>
      <g
         id="g120"
         transform="matrix(0.35277777,0,0,-0.35277777,118.33539,316.48304)">
        <path
           d="m 0,0 c 0.721,-0.719 0.721,-1.893 0,-2.613 -0.719,-0.721 -1.893,-0.721 -2.613,0 -0.349,0.35 -0.542,0.814 -0.542,1.307 0,0.493 0.193,0.959 0.542,1.306 0.359,0.361 0.834,0.542 1.307,0.542 C -0.833,0.542 -0.361,0.361 0,0"
           style="fill:#f38b6c;fill-opacity:1;fill-rule:nonzero;stroke:none"
           id="path122" />
      </g>
      <g
         id="g124"
         transform="matrix(0.35277777,0,0,-0.35277777,111.76606,330.83425)">
        <path
           d="M 0,0 2.725,-2.933 H -29.932 L -27.208,0 Z"
           style="fill:#3ecff1;fill-opacity:1;fill-rule:nonzero;stroke:none"
           id="path126" />
      </g>
      <g
         id="g128"
         transform="matrix(0.35277777,0,0,-0.35277777,111.06414,322.58839)">
        <path
           d="m 0,0 c 0.719,-0.721 0.719,-1.893 0,-2.615 -0.721,-0.719 -1.893,-0.719 -2.615,0 -0.721,0.722 -0.721,1.894 0,2.615 0.361,0.361 0.834,0.54 1.306,0.54 C -0.833,0.54 -0.361,0.361 0,0"
           style="fill:#f38b6c;fill-opacity:1;fill-rule:nonzero;stroke:none"
           id="path130" />
      </g>
      <g
         id="g132"
         transform="matrix(0.35277777,0,0,-0.35277777,103.79212,316.48304)">
        <path
           d="m 0,0 c 0.721,-0.719 0.721,-1.893 0,-2.613 -0.719,-0.721 -1.893,-0.721 -2.613,0 -0.721,0.72 -0.721,1.894 0,2.613 0.359,0.361 0.834,0.542 1.307,0.542 C -0.833,0.542 -0.361,0.361 0,0"
           style="fill:#f38b6c;fill-opacity:1;fill-rule:nonzero;stroke:none"
           id="path134" />
      </g>
      <g
         id="g136"
         transform="matrix(0.35277777,0,0,-0.35277777,96.520877,322.58839)">
        <path
           d="m 0,0 c 0.719,-0.721 0.719,-1.893 0,-2.615 -0.721,-0.719 -1.893,-0.721 -2.615,0 -0.719,0.722 -0.719,1.894 0,2.615 0.361,0.361 0.834,0.54 1.306,0.54 C -0.834,0.54 -0.361,0.361 0,0"
           style="fill:#f38b6c;fill-opacity:1;fill-rule:nonzero;stroke:none"
           id="path138" />
      </g>
    </g>
  </g>
</svg>
