<?xml version="1.0" encoding="UTF-8" standalone="no"?>
<svg
   xmlns:dc="http://purl.org/dc/elements/1.1/"
   xmlns:cc="http://creativecommons.org/ns#"
   xmlns:rdf="http://www.w3.org/1999/02/22-rdf-syntax-ns#"
   xmlns:svg="http://www.w3.org/2000/svg"
   xmlns="http://www.w3.org/2000/svg"
   id="svg1294"
   version="1.1"
   viewBox="0 0 16.933333 16.933333"
   height="64"
   width="64">
  <defs
     id="defs1288" />
  <metadata
     id="metadata1291">
    <rdf:RDF>
      <cc:Work
         rdf:about="">
        <dc:format>image/svg+xml</dc:format>
        <dc:type
           rdf:resource="http://purl.org/dc/dcmitype/StillImage" />
        <dc:title></dc:title>
      </cc:Work>
    </rdf:RDF>
  </metadata>
  <g
     transform="translate(0,-280.06667)"
     id="layer1">
    <g
       id="g6919"
       transform="matrix(0.16840374,0,0,-0.16840374,-9.0810327,329.18571)">
      <g
         id="g6032"
         transform="translate(102.6533,249.6943)">
        <path
           d="m 0,0 v 3.312 h -2.758 c 0.172,-0.87 0.596,-1.67 1.237,-2.31 C -1.08,0.56 -0.562,0.224 0,0 m 0.224,21.696 v 4.474 c -0.73,-0.477 -1.217,-1.301 -1.217,-2.236 0,-0.936 0.487,-1.761 1.217,-2.238 m 4.127,-6.018 c 0,0.936 -0.484,1.758 -1.214,2.236 v -4.473 c 0.73,0.478 1.214,1.3 1.214,2.237 m 1.853,-23.89 c 0,1.21 -0.47,2.348 -1.324,3.202 -0.441,0.441 -0.957,0.777 -1.519,1.002 v -8.407 c 0.562,0.224 1.078,0.56 1.517,0.999 0.856,0.858 1.326,1.994 1.326,3.204 m 6.675,20.618 c 1.456,2.194 2.225,4.732 2.225,7.399 0,7.403 -6.023,13.426 -13.424,13.426 -7.403,0 -13.425,-6.023 -13.425,-13.426 0,-2.667 0.768,-5.207 2.225,-7.399 h 6.679 c -0.668,0.921 -1.064,2.05 -1.064,3.272 0,0.804 0.652,1.456 1.456,1.456 0.804,0 1.456,-0.652 1.456,-1.456 0,-0.937 0.487,-1.759 1.217,-2.237 v 5.102 c -2.375,0.641 -4.129,2.815 -4.129,5.391 0,2.575 1.754,4.748 4.129,5.391 v 0.65 c 0,0.804 0.652,1.456 1.456,1.456 0.805,0 1.457,-0.652 1.457,-1.456 v -0.652 c 2.375,-0.641 4.127,-2.814 4.127,-5.389 0,-0.804 -0.652,-1.456 -1.456,-1.456 -0.805,0 -1.457,0.652 -1.457,1.456 0,0.935 -0.484,1.759 -1.214,2.236 v -5.102 c 2.375,-0.643 4.127,-2.816 4.127,-5.39 0,-1.222 -0.394,-2.351 -1.062,-3.272 z m 4.961,-67.617 -2.676,2.881 h -26.968 l -2.677,-2.881 z m 1.142,67.617 c 1.002,2.333 1.511,4.818 1.511,7.399 0,10.374 -8.438,18.814 -18.813,18.814 -10.374,0 -18.816,-8.44 -18.816,-18.814 0,-2.581 0.508,-5.066 1.512,-7.399 h 2.234 c -1.127,2.283 -1.716,4.793 -1.716,7.399 0,9.256 7.53,16.786 16.786,16.786 9.254,0 16.785,-7.53 16.785,-16.786 0,-2.606 -0.589,-5.116 -1.714,-7.399 z m 3.729,-14.411 c 0,1.803 -0.231,3.587 -0.681,5.317 H 3.361 v -3.816 c 1.468,-0.316 2.814,-1.044 3.896,-2.131 1.488,-1.488 2.308,-3.468 2.308,-5.577 0,-2.108 -0.82,-4.089 -2.31,-5.579 -1.082,-1.084 -2.426,-1.813 -3.894,-2.129 v -1.373 c 0,-0.928 -0.753,-1.681 -1.681,-1.681 -0.927,0 -1.68,0.753 -1.68,1.681 v 1.373 c -1.465,0.316 -2.812,1.045 -3.899,2.129 -1.487,1.49 -2.308,3.471 -2.308,5.579 0,0.928 0.751,1.681 1.681,1.681 0.928,0 1.68,-0.753 1.68,-1.681 0,-1.21 0.471,-2.346 1.325,-3.202 0.441,-0.441 0.959,-0.777 1.521,-1.001 v 8.911 c -1.465,0.316 -2.812,1.044 -3.899,2.128 -1.277,1.277 -2.059,2.918 -2.256,4.688 h -12.516 c -0.45,-1.73 -0.681,-3.514 -0.681,-5.317 0,-11.596 9.435,-21.031 21.032,-21.031 11.598,0 21.031,9.435 21.031,21.031 m 8.104,0 c 0,1.785 -0.166,3.569 -0.486,5.317 h -4.844 c 0.387,-1.739 0.587,-3.518 0.587,-5.317 0,-13.449 -10.941,-24.392 -24.392,-24.392 -13.45,0 -24.393,10.943 -24.393,24.392 0,1.799 0.199,3.578 0.587,5.317 h -4.844 c -0.321,-1.748 -0.486,-3.532 -0.486,-5.317 0,-16.066 13.069,-29.137 29.136,-29.137 16.066,0 29.135,13.071 29.135,29.137 m 16.038,-44.591 h -90.346 c 0.587,-1.393 1.968,-2.373 3.572,-2.373 h 83.203 c 1.604,0 2.982,0.98 3.571,2.373 M -43.493,6.673 h 90.346 c -0.589,1.393 -1.967,2.372 -3.571,2.372 h -83.203 c -1.604,0 -2.985,-0.979 -3.572,-2.372 M 47.156,-43.235 V 3.312 H 33.739 c 0.289,-1.753 0.437,-3.534 0.437,-5.317 0,-17.919 -14.577,-32.498 -32.496,-32.498 -17.92,0 -32.497,14.579 -32.497,32.498 0,1.783 0.147,3.564 0.434,5.317 h -13.414 v -46.547 z m 3.361,48.404 v -50.261 c 0,-3.991 -3.245,-7.238 -7.235,-7.238 H 19.751 l 2.678,-2.881 h 4.044 c 0.927,0 1.68,-0.751 1.68,-1.68 0,-0.928 -0.753,-1.681 -1.68,-1.681 h -49.585 c -0.93,0 -1.68,0.753 -1.68,1.681 0,0.929 0.75,1.68 1.68,1.68 h 4.044 l 2.676,2.881 h -23.529 c -3.991,0 -7.237,3.247 -7.237,7.238 V 5.169 c 0,3.991 3.246,7.237 7.237,7.237 h 20.69 c -0.84,2.362 -1.266,4.84 -1.266,7.399 0,12.227 9.948,22.175 22.177,22.175 12.227,0 22.174,-9.948 22.174,-22.175 0,-2.559 -0.424,-5.037 -1.264,-7.399 h 20.692 c 3.99,0 7.235,-3.246 7.235,-7.237"
           style="fill:#000000;fill-opacity:1;fill-rule:nonzero;stroke:none"
           id="path6034" />
      </g>
      <g
         id="g6892">
        <g
           transform="translate(149.5067,256.3668)"
           id="g6036">
          <path
             id="path6038"
             style="fill:#3ecff1;fill-opacity:1;fill-rule:nonzero;stroke:none"
             d="m 0,0 h -90.346 c 0.587,1.394 1.967,2.373 3.571,2.373 H -3.572 C -1.967,2.373 -0.589,1.394 0,0" />
        </g>
        <g
           transform="translate(59.1607,203.0985)"
           id="g6040">
          <path
             id="path6042"
             style="fill:#3ecff1;fill-opacity:1;fill-rule:nonzero;stroke:none"
             d="M 0,0 H 90.346 C 89.757,-1.394 88.379,-2.373 86.775,-2.373 H 3.572 C 1.967,-2.373 0.587,-1.394 0,0" />
        </g>
        <g
           transform="translate(132.9822,253.0059)"
           id="g6044">
          <path
             id="path6046"
             style="fill:#f38b6c;fill-opacity:1;fill-rule:nonzero;stroke:none"
             d="m 0,0 c 0.32,-1.748 0.486,-3.531 0.486,-5.317 0,-16.065 -13.069,-29.137 -29.134,-29.137 -16.068,0 -29.137,13.072 -29.137,29.137 0,1.786 0.165,3.569 0.486,5.317 h 4.844 c -0.388,-1.739 -0.587,-3.518 -0.587,-5.317 0,-13.448 10.943,-24.391 24.394,-24.391 13.45,0 24.391,10.943 24.391,24.391 0,1.799 -0.2,3.578 -0.587,5.317 z" />
        </g>
        <g
           transform="translate(124.683,253.0059)"
           id="g6048">
          <path
             id="path6050"
             style="fill:#ffffff;fill-opacity:1;fill-rule:nonzero;stroke:none"
             d="m 0,0 c 0.45,-1.73 0.681,-3.513 0.681,-5.317 0,-11.595 -9.433,-21.03 -21.03,-21.03 -11.598,0 -21.033,9.435 -21.033,21.03 0,1.804 0.231,3.587 0.681,5.317 h 12.516 c 0.197,-1.77 0.979,-3.41 2.257,-4.687 1.086,-1.085 2.433,-1.813 3.898,-2.129 v -8.911 c -0.562,0.224 -1.08,0.56 -1.521,1.002 -0.854,0.856 -1.324,1.992 -1.324,3.202 0,0.927 -0.753,1.68 -1.681,1.68 -0.93,0 -1.68,-0.753 -1.68,-1.68 0,-2.109 0.82,-4.09 2.308,-5.58 1.086,-1.084 2.433,-1.812 3.898,-2.128 v -1.374 c 0,-0.927 0.753,-1.68 1.681,-1.68 0.927,0 1.68,0.753 1.68,1.68 v 1.374 c 1.468,0.316 2.812,1.044 3.894,2.128 1.49,1.49 2.31,3.471 2.31,5.58 0,2.108 -0.82,4.089 -2.307,5.576 -1.083,1.087 -2.429,1.815 -3.897,2.131 V 0 Z" />
        </g>
        <g
           transform="translate(123.1459,269.4991)"
           id="g6052">
          <path
             id="path6054"
             style="fill:#f38b6c;fill-opacity:1;fill-rule:nonzero;stroke:none"
             d="m 0,0 c 0,-2.581 -0.509,-5.066 -1.51,-7.399 h -2.232 c 1.125,2.284 1.714,4.793 1.714,7.399 0,9.256 -7.53,16.787 -16.784,16.787 -9.256,0 -16.787,-7.531 -16.787,-16.787 0,-2.606 0.589,-5.115 1.716,-7.399 h -2.233 c -1.004,2.333 -1.513,4.818 -1.513,7.399 0,10.374 8.443,18.814 18.817,18.814 C -8.438,18.814 0,10.374 0,0" />
        </g>
        <g
           transform="translate(117.8177,197.3647)"
           id="g6056">
          <path
             id="path6058"
             style="fill:#3ecff1;fill-opacity:1;fill-rule:nonzero;stroke:none"
             d="M 0,0 2.675,-2.881 H -29.646 L -26.968,0 Z" />
        </g>
        <g
           transform="translate(117.7572,269.4991)"
           id="g6060">
          <path
             id="path6062"
             style="fill:#ffffff;fill-opacity:1;fill-rule:nonzero;stroke:none"
             d="m 0,0 c 0,-2.666 -0.769,-5.205 -2.225,-7.399 h -6.677 c 0.668,0.921 1.062,2.051 1.062,3.272 0,2.574 -1.752,4.748 -4.127,5.391 v 5.102 c 0.73,-0.478 1.214,-1.302 1.214,-2.237 0,-0.804 0.652,-1.456 1.457,-1.456 0.804,0 1.456,0.652 1.456,1.456 0,2.575 -1.752,4.748 -4.127,5.389 v 0.652 c 0,0.805 -0.652,1.457 -1.457,1.457 -0.804,0 -1.456,-0.652 -1.456,-1.457 V 9.52 c -2.375,-0.643 -4.129,-2.816 -4.129,-5.391 0,-2.576 1.754,-4.75 4.129,-5.39 v -5.102 c -0.73,0.477 -1.217,1.299 -1.217,2.236 0,0.804 -0.652,1.456 -1.456,1.456 -0.804,0 -1.456,-0.652 -1.456,-1.456 0,-1.221 0.396,-2.351 1.064,-3.272 h -6.679 c -1.457,2.192 -2.225,4.733 -2.225,7.399 0,7.403 6.022,13.426 13.425,13.426 C -6.023,13.426 0,7.403 0,0" />
        </g>
        <g
           transform="translate(107.5333,244.6843)"
           id="g6064">
          <path
             id="path6066"
             style="fill:#ffffff;fill-opacity:1;fill-rule:nonzero;stroke:none"
             d="m 0,0 c 0.854,-0.854 1.324,-1.992 1.324,-3.202 0,-1.21 -0.47,-2.346 -1.326,-3.204 -0.439,-0.439 -0.955,-0.775 -1.517,-0.999 V 1.002 C -0.957,0.777 -0.441,0.441 0,0" />
        </g>
        <g
           transform="translate(105.7901,267.608)"
           id="g6068">
          <path
             id="path6070"
             style="fill:#ffffff;fill-opacity:1;fill-rule:nonzero;stroke:none"
             d="M 0,0 C 0.73,-0.477 1.214,-1.3 1.214,-2.236 1.214,-3.173 0.73,-3.995 0,-4.472 Z" />
        </g>
        <g
           transform="translate(102.8773,275.8647)"
           id="g6072">
          <path
             id="path6074"
             style="fill:#ffffff;fill-opacity:1;fill-rule:nonzero;stroke:none"
             d="m 0,0 v -4.474 c -0.73,0.477 -1.217,1.301 -1.217,2.238 0,0.934 0.487,1.759 1.217,2.236" />
        </g>
        <g
           transform="translate(102.6533,253.0059)"
           id="g6076">
          <path
             id="path6078"
             style="fill:#ffffff;fill-opacity:1;fill-rule:nonzero;stroke:none"
             d="m 0,0 v -3.312 c -0.562,0.224 -1.08,0.561 -1.521,1.002 -0.641,0.641 -1.065,1.441 -1.237,2.31 z" />
        </g>
      </g>
    </g>
  </g>
</svg>
