<?xml version="1.0" encoding="UTF-8" standalone="no"?>
<svg
   xmlns:dc="http://purl.org/dc/elements/1.1/"
   xmlns:cc="http://creativecommons.org/ns#"
   xmlns:rdf="http://www.w3.org/1999/02/22-rdf-syntax-ns#"
   xmlns:svg="http://www.w3.org/2000/svg"
   xmlns="http://www.w3.org/2000/svg"
   id="svg1294"
   version="1.1"
   viewBox="0 0 16.933333 16.933333"
   height="64"
   width="64">
  <defs
     id="defs1288" />
  <metadata
     id="metadata1291">
    <rdf:RDF>
      <cc:Work
         rdf:about="">
        <dc:format>image/svg+xml</dc:format>
        <dc:type
           rdf:resource="http://purl.org/dc/dcmitype/StillImage" />
        <dc:title></dc:title>
      </cc:Work>
    </rdf:RDF>
  </metadata>
  <g
     transform="translate(0,-280.06667)"
     id="layer1">
    <g
       id="g6680"
       transform="matrix(0.18966547,0,0,-0.18966463,-101.74223,379.58334)">
      <g
         id="g5426"
         transform="translate(563.8004,452.1707)">
        <path
           d="M 0,0 11.94,11.94 C 9.632,13.016 7.542,14.483 5.705,16.321 3.867,18.156 2.402,20.248 1.324,22.559 L -10.618,10.616 c -2.926,-2.926 -2.926,-7.69 0,-10.618 0.706,-0.708 1.532,-1.255 2.431,-1.627 0.901,-0.372 1.873,-0.567 2.877,-0.567 2.007,0 3.894,0.78 5.31,2.196 m 20.708,24.45 c -0.137,1.765 -0.892,3.428 -2.169,4.705 -1.277,1.277 -2.94,2.03 -4.705,2.169 0.138,-1.766 0.891,-3.428 2.168,-4.706 1.278,-1.277 2.94,-2.032 4.706,-2.168 m 5.91,2.171 4.038,4.035 c -0.934,2.411 -2.341,4.566 -4.194,6.419 -2.095,2.095 -4.58,3.624 -7.383,4.54 C 14.163,43.224 8.754,42.729 4.235,40.255 2.684,39.408 1.261,38.339 0,37.075 L -18.539,18.539 c -7.295,-7.296 -7.295,-19.166 0,-26.462 7.293,-7.295 19.164,-7.295 26.46,0 l 18.355,18.355 c -1.631,-0.374 -3.299,-0.564 -4.972,-0.564 -1.976,0 -3.957,0.266 -5.886,0.797 L 2.375,-2.377 c -1.026,-1.026 -2.22,-1.82 -3.522,-2.36 -1.302,-0.537 -2.711,-0.82 -4.163,-0.82 -2.906,0 -5.635,1.13 -7.686,3.177 -4.237,4.24 -4.237,11.134 0,15.373 L 5.543,31.532 c 1.73,1.73 4.022,2.832 6.453,3.108 3.314,0.376 6.567,-0.755 8.92,-3.108 1.799,-1.799 2.882,-4.123 3.124,-6.598 0.959,0.369 1.832,0.938 2.578,1.687 m 20.735,23.844 c 0,2.008 -0.78,3.892 -2.196,5.308 -1.416,1.416 -3.3,2.196 -5.308,2.196 h -0.002 c -2.008,0 -3.892,-0.78 -5.306,-2.193 L 22.599,43.833 c 2.31,-1.078 4.403,-2.543 6.238,-4.38 1.837,-1.838 3.305,-3.928 4.38,-6.236 l 11.94,11.94 c 1.416,1.416 2.196,3.301 2.196,5.308 M 53.08,37.237 c 7.293,7.295 7.293,19.164 0,26.459 -3.529,3.527 -8.227,5.47 -13.231,5.47 h -0.002 c -5.003,0 -9.7,-1.941 -13.229,-5.47 L 8.263,45.341 c 3.558,0.816 7.3,0.751 10.861,-0.231 l 13.04,13.041 c 2.05,2.05 4.779,3.179 7.683,3.179 h 0.002 c 2.906,0 5.635,-1.129 7.686,-3.179 2.05,-2.05 3.179,-4.78 3.179,-7.686 0,-2.903 -1.129,-5.633 -3.179,-7.683 L 28.996,24.243 c -1.73,-1.729 -4.022,-2.834 -6.453,-3.11 -0.419,-0.047 -0.838,-0.071 -1.253,-0.071 -2.87,0 -5.608,1.125 -7.665,3.179 -1.797,1.799 -2.881,4.123 -3.123,6.601 C 9.541,30.47 8.669,29.903 7.921,29.155 L 3.885,25.12 c 0.935,-2.414 2.344,-4.571 4.197,-6.424 2.095,-2.095 4.577,-3.623 7.378,-4.538 4.914,-1.611 10.325,-1.115 14.844,1.36 1.549,0.847 2.974,1.918 4.237,3.18 z m 2.375,28.834 c 8.606,-8.604 8.606,-22.605 0,-31.212 L 36.919,16.321 C 35.545,14.949 34.006,13.773 32.341,12.812 31.382,11.147 30.206,9.61 28.837,8.239 L 10.298,-10.298 c -4.304,-4.304 -9.957,-6.455 -15.608,-6.455 -5.653,0 -11.304,2.151 -15.606,6.453 -8.606,8.606 -8.606,22.608 0,31.214 l 18.539,18.539 c 1.371,1.371 2.908,2.547 4.573,3.506 0.959,1.665 2.135,3.204 3.509,4.576 l 18.538,18.538 c 4.161,4.161 9.705,6.453 15.604,6.453 h 0.002 c 5.902,0 11.445,-2.292 15.606,-6.455"
           style="fill:#000000;fill-opacity:1;fill-rule:nonzero;stroke:none"
           id="path5428" />
      </g>
      <g
         id="g5430"
         transform="translate(616.8806,515.8668)">
        <path
           d="m 0,0 c 7.293,-7.295 7.293,-19.164 0,-26.459 l -18.539,-18.539 c -1.264,-1.262 -2.689,-2.333 -4.237,-3.18 -4.519,-2.476 -9.93,-2.971 -14.844,-1.36 -2.801,0.914 -5.283,2.443 -7.378,4.538 -1.853,1.853 -3.263,4.01 -4.197,6.423 l 4.035,4.036 c 0.749,0.748 1.62,1.315 2.582,1.687 0.242,-2.478 1.326,-4.802 3.123,-6.601 2.057,-2.055 4.795,-3.179 7.665,-3.179 0.415,0 0.834,0.024 1.253,0.071 2.431,0.276 4.723,1.381 6.453,3.11 l 18.538,18.539 c 2.051,2.05 3.18,4.779 3.18,7.683 0,2.906 -1.129,5.635 -3.18,7.685 -2.05,2.051 -4.779,3.18 -7.685,3.18 h -0.002 c -2.904,0 -5.633,-1.129 -7.683,-3.18 l -13.04,-13.04 c -3.561,0.982 -7.303,1.047 -10.861,0.231 L -26.462,0 c 3.529,3.529 8.226,5.469 13.229,5.469 h 0.002 C -8.228,5.469 -3.529,3.527 0,0"
           style="fill:#f38b6c;fill-opacity:1;fill-rule:nonzero;stroke:none"
           id="path5432" />
      </g>
      <g
         id="g5434"
         transform="translate(594.4565,482.8268)">
        <path
           d="m 0,0 -4.038,-4.035 c -0.746,-0.749 -1.62,-1.318 -2.579,-1.688 -0.242,2.476 -1.324,4.8 -3.123,6.599 -2.353,2.353 -5.606,3.484 -8.92,3.108 -2.431,-0.276 -4.723,-1.378 -6.453,-3.108 l -18.539,-18.539 c -4.237,-4.239 -4.237,-11.133 0,-15.373 2.05,-2.048 4.78,-3.177 7.686,-3.177 1.452,0 2.861,0.282 4.163,0.82 1.302,0.54 2.496,1.333 3.522,2.36 l 13.043,13.042 c 1.929,-0.531 3.909,-0.797 5.886,-0.797 1.673,0 3.34,0.19 4.972,0.564 l -18.356,-18.355 c -7.295,-7.295 -19.166,-7.295 -26.459,0 -7.295,7.296 -7.295,19.166 0,26.462 l 18.539,18.536 c 1.261,1.264 2.684,2.333 4.235,3.18 4.519,2.473 9.928,2.969 14.844,1.36 2.803,-0.917 5.288,-2.445 7.383,-4.54 C -2.341,4.566 -0.934,2.411 0,0"
           style="fill:#3ecff1;fill-opacity:1;fill-rule:nonzero;stroke:none"
           id="path5436" />
      </g>
    </g>
  </g>
</svg>
