<?xml version="1.0" encoding="UTF-8" standalone="no"?>
<svg
   xmlns:dc="http://purl.org/dc/elements/1.1/"
   xmlns:cc="http://creativecommons.org/ns#"
   xmlns:rdf="http://www.w3.org/1999/02/22-rdf-syntax-ns#"
   xmlns:svg="http://www.w3.org/2000/svg"
   xmlns="http://www.w3.org/2000/svg"
   id="svg1294"
   version="1.1"
   viewBox="0 0 16.933333 16.933333"
   height="64"
   width="64">
  <defs
     id="defs1288" />
  <metadata
     id="metadata1291">
    <rdf:RDF>
      <cc:Work
         rdf:about="">
        <dc:format>image/svg+xml</dc:format>
        <dc:type
           rdf:resource="http://purl.org/dc/dcmitype/StillImage" />
        <dc:title></dc:title>
      </cc:Work>
    </rdf:RDF>
  </metadata>
  <g
     transform="translate(0,-280.06667)"
     id="layer1">
    <g
       id="g5238"
       transform="matrix(0.16322858,0,0,-0.16322858,-86.380728,328.03064)">
      <path
         d="m 629.58,276.878 h -97.019 v -12.359 h 97.019 z m 0,-15.72 h -97.019 v -54.725 h 97.019 z m 3.361,17.401 v -73.806 c 0,-0.93 -0.753,-1.68 -1.68,-1.68 h -100.38 c -0.93,0 -1.68,0.75 -1.68,1.68 v 73.806 c 0,0.928 0.75,1.68 1.68,1.68 h 100.38 c 0.927,0 1.68,-0.752 1.68,-1.68"
         style="fill:#000000;fill-opacity:1;fill-rule:nonzero;stroke:none"
         id="path140" />
      <g
         id="g142"
         transform="translate(538.1297,270.6988)">
        <path
           d="M 0,0 C 0,0.441 -0.179,0.876 -0.491,1.19 -0.804,1.501 -1.237,1.68 -1.68,1.68 -2.122,1.68 -2.557,1.501 -2.868,1.19 -3.182,0.876 -3.361,0.444 -3.361,0 c 0,-0.441 0.179,-0.876 0.493,-1.188 0.314,-0.313 0.746,-0.492 1.188,-0.492 0.443,0 0.876,0.179 1.189,0.492 C -0.179,-0.874 0,-0.441 0,0 M 5.431,0 C 5.431,0.444 5.252,0.876 4.938,1.19 4.627,1.501 4.192,1.68 3.751,1.68 3.309,1.68 2.877,1.501 2.563,1.19 2.25,0.876 2.07,0.444 2.07,0 c 0,-0.441 0.18,-0.876 0.493,-1.188 0.314,-0.313 0.746,-0.492 1.188,-0.492 0.441,0 0.876,0.179 1.187,0.492 0.314,0.314 0.493,0.747 0.493,1.188 m 5.431,0 c 0,0.444 -0.179,0.876 -0.492,1.19 C 10.058,1.501 9.626,1.68 9.182,1.68 8.741,1.68 8.306,1.501 7.992,1.19 7.681,0.876 7.502,0.444 7.502,0 c 0,-0.441 0.179,-0.874 0.49,-1.188 0.314,-0.313 0.749,-0.492 1.19,-0.492 0.444,0 0.876,0.179 1.188,0.492 0.313,0.314 0.492,0.747 0.492,1.188 m 77.147,-3.137 v 6.274 c 0,0.927 -0.753,1.68 -1.68,1.68 H 14.857 c -0.927,0 -1.68,-0.753 -1.68,-1.68 v -6.274 c 0,-0.927 0.753,-1.68 1.68,-1.68 h 71.472 c 0.927,0 1.68,0.753 1.68,1.68 M 91.451,-6.18 H -5.568 V 6.179 h 97.019 z"
           style="fill:#3ecff1;fill-opacity:1;fill-rule:nonzero;stroke:none"
           id="path144" />
      </g>
      <path
         d="m 622.778,272.155 h -68.11 v -2.913 h 68.11 z m 3.361,1.681 v -6.274 c 0,-0.928 -0.753,-1.68 -1.681,-1.68 h -71.471 c -0.927,0 -1.68,0.752 -1.68,1.68 v 6.274 c 0,0.927 0.753,1.68 1.68,1.68 h 71.471 c 0.928,0 1.681,-0.753 1.681,-1.68"
         style="fill:#000000;fill-opacity:1;fill-rule:nonzero;stroke:none"
         id="path146" />
      <path
         d="m 617.949,228.118 h -16.357 v -12.624 h 16.357 z m 3.361,1.681 v -15.985 c 0,-0.928 -0.753,-1.68 -1.68,-1.68 h -19.718 c -0.927,0 -1.68,0.752 -1.68,1.68 v 15.985 c 0,0.929 0.753,1.68 1.68,1.68 h 19.718 c 0.927,0 1.68,-0.751 1.68,-1.68"
         style="fill:#000000;fill-opacity:1;fill-rule:nonzero;stroke:none"
         id="path148" />
      <g
         id="g150"
         transform="translate(619.6298,255.4581)">
        <path
           d="M 0,0 C 0.928,0 1.68,-0.753 1.68,-1.68 1.68,-2.61 0.928,-3.361 0,-3.361 h -19.717 c -0.928,0 -1.681,0.751 -1.681,1.681 0,0.927 0.753,1.68 1.681,1.68 z"
           style="fill:#000000;fill-opacity:1;fill-rule:nonzero;stroke:none"
           id="path152" />
      </g>
      <g
         id="g154"
         transform="translate(619.6298,247.4659)">
        <path
           d="M 0,0 C 0.928,0 1.68,-0.753 1.68,-1.68 1.68,-2.61 0.928,-3.361 0,-3.361 h -19.717 c -0.928,0 -1.681,0.751 -1.681,1.681 0,0.927 0.753,1.68 1.681,1.68 z"
           style="fill:#000000;fill-opacity:1;fill-rule:nonzero;stroke:none"
           id="path156" />
      </g>
      <g
         id="g158"
         transform="translate(619.6298,239.4714)">
        <path
           d="M 0,0 C 0.928,0 1.68,-0.751 1.68,-1.68 1.68,-2.608 0.928,-3.361 0,-3.361 h -19.717 c -0.928,0 -1.681,0.753 -1.681,1.681 0,0.929 0.753,1.68 1.681,1.68 z"
           style="fill:#000000;fill-opacity:1;fill-rule:nonzero;stroke:none"
           id="path160" />
      </g>
      <path
         d="m 617.949,215.495 h -16.357 v 12.624 h 16.357 z"
         style="fill:#f38b6c;fill-opacity:1;fill-rule:nonzero;stroke:none"
         id="path162" />
      <path
         d="m 589.247,252.097 h -16.354 v -12.626 h 16.354 z m 3.361,1.681 v -15.987 c 0,-0.928 -0.751,-1.681 -1.68,-1.681 h -19.716 c -0.927,0 -1.68,0.753 -1.68,1.681 v 15.987 c 0,0.927 0.753,1.68 1.68,1.68 h 19.716 c 0.929,0 1.68,-0.753 1.68,-1.68"
         style="fill:#000000;fill-opacity:1;fill-rule:nonzero;stroke:none"
         id="path164" />
      <g
         id="g166"
         transform="translate(590.9276,231.4791)">
        <path
           d="M 0,0 C 0.93,0 1.68,-0.751 1.68,-1.68 1.68,-2.608 0.93,-3.361 0,-3.361 h -19.715 c -0.928,0 -1.681,0.753 -1.681,1.681 0,0.929 0.753,1.68 1.681,1.68 z"
           style="fill:#000000;fill-opacity:1;fill-rule:nonzero;stroke:none"
           id="path168" />
      </g>
      <g
         id="g170"
         transform="translate(590.9276,223.4868)">
        <path
           d="M 0,0 C 0.93,0 1.68,-0.753 1.68,-1.68 1.68,-2.608 0.93,-3.361 0,-3.361 h -19.715 c -0.928,0 -1.681,0.753 -1.681,1.681 0,0.927 0.753,1.68 1.681,1.68 z"
           style="fill:#000000;fill-opacity:1;fill-rule:nonzero;stroke:none"
           id="path172" />
      </g>
      <g
         id="g174"
         transform="translate(590.9276,215.4946)">
        <path
           d="M 0,0 C 0.93,0 1.68,-0.753 1.68,-1.68 1.68,-2.608 0.93,-3.361 0,-3.361 h -19.715 c -0.928,0 -1.681,0.753 -1.681,1.681 0,0.927 0.753,1.68 1.681,1.68 z"
           style="fill:#000000;fill-opacity:1;fill-rule:nonzero;stroke:none"
           id="path176" />
      </g>
      <path
         d="m 589.247,239.471 h -16.354 v 12.626 h 16.354 z"
         style="fill:#f38b6c;fill-opacity:1;fill-rule:nonzero;stroke:none"
         id="path178" />
      <g
         id="g180"
         transform="translate(562.2275,255.4581)">
        <path
           d="M 0,0 C 0.93,0 1.68,-0.753 1.68,-1.68 1.68,-2.61 0.93,-3.361 0,-3.361 h -19.715 c -0.928,0 -1.681,0.751 -1.681,1.681 0,0.927 0.753,1.68 1.681,1.68 z"
           style="fill:#000000;fill-opacity:1;fill-rule:nonzero;stroke:none"
           id="path182" />
      </g>
      <g
         id="g184"
         transform="translate(562.2275,247.4659)">
        <path
           d="M 0,0 C 0.93,0 1.68,-0.753 1.68,-1.68 1.68,-2.61 0.93,-3.361 0,-3.361 h -19.715 c -0.928,0 -1.681,0.751 -1.681,1.681 0,0.927 0.753,1.68 1.681,1.68 z"
           style="fill:#000000;fill-opacity:1;fill-rule:nonzero;stroke:none"
           id="path186" />
      </g>
      <g
         id="g188"
         transform="translate(562.2275,239.4714)">
        <path
           d="M 0,0 C 0.93,0 1.68,-0.751 1.68,-1.68 1.68,-2.608 0.93,-3.361 0,-3.361 h -19.715 c -0.928,0 -1.681,0.753 -1.681,1.681 0,0.929 0.753,1.68 1.681,1.68 z"
           style="fill:#000000;fill-opacity:1;fill-rule:nonzero;stroke:none"
           id="path190" />
      </g>
      <g
         id="g192"
         transform="translate(562.2275,231.4791)">
        <path
           d="M 0,0 C 0.93,0 1.68,-0.751 1.68,-1.68 1.68,-2.608 0.93,-3.361 0,-3.361 h -19.715 c -0.928,0 -1.681,0.753 -1.681,1.681 0,0.929 0.753,1.68 1.681,1.68 z"
           style="fill:#000000;fill-opacity:1;fill-rule:nonzero;stroke:none"
           id="path194" />
      </g>
      <g
         id="g196"
         transform="translate(562.2275,223.4868)">
        <path
           d="M 0,0 C 0.93,0 1.68,-0.753 1.68,-1.68 1.68,-2.608 0.93,-3.361 0,-3.361 h -19.715 c -0.928,0 -1.681,0.753 -1.681,1.681 0,0.927 0.753,1.68 1.681,1.68 z"
           style="fill:#000000;fill-opacity:1;fill-rule:nonzero;stroke:none"
           id="path198" />
      </g>
      <g
         id="g200"
         transform="translate(562.2275,215.4946)">
        <path
           d="M 0,0 C 0.93,0 1.68,-0.753 1.68,-1.68 1.68,-2.608 0.93,-3.361 0,-3.361 h -19.715 c -0.928,0 -1.681,0.753 -1.681,1.681 0,0.927 0.753,1.68 1.681,1.68 z"
           style="fill:#000000;fill-opacity:1;fill-rule:nonzero;stroke:none"
           id="path202" />
      </g>
      <g
         id="g204"
         transform="translate(548.4993,271.8886)">
        <path
           d="M 0,0 C 0.314,-0.314 0.493,-0.746 0.493,-1.19 0.493,-1.631 0.314,-2.064 0,-2.377 -0.311,-2.691 -0.744,-2.87 -1.188,-2.87 c -0.441,0 -0.876,0.179 -1.189,0.493 -0.312,0.313 -0.491,0.746 -0.491,1.187 0,0.444 0.179,0.876 0.491,1.19 0.313,0.311 0.748,0.491 1.189,0.491 C -0.744,0.491 -0.311,0.311 0,0"
           style="fill:#000000;fill-opacity:1;fill-rule:nonzero;stroke:none"
           id="path206" />
      </g>
      <g
         id="g208"
         transform="translate(543.068,271.8886)">
        <path
           d="M 0,0 C 0.314,-0.314 0.493,-0.746 0.493,-1.19 0.493,-1.631 0.314,-2.064 0,-2.377 -0.311,-2.691 -0.746,-2.87 -1.187,-2.87 c -0.442,0 -0.874,0.179 -1.188,0.493 -0.314,0.311 -0.493,0.746 -0.493,1.187 0,0.444 0.179,0.876 0.493,1.19 0.314,0.311 0.746,0.491 1.188,0.491 C -0.746,0.491 -0.311,0.311 0,0"
           style="fill:#000000;fill-opacity:1;fill-rule:nonzero;stroke:none"
           id="path210" />
      </g>
      <g
         id="g212"
         transform="translate(537.639,271.8886)">
        <path
           d="M 0,0 C 0.311,-0.314 0.491,-0.748 0.491,-1.19 0.491,-1.631 0.311,-2.064 0,-2.377 -0.314,-2.691 -0.746,-2.87 -1.19,-2.87 c -0.441,0 -0.874,0.179 -1.187,0.493 -0.314,0.311 -0.493,0.746 -0.493,1.187 0,0.444 0.179,0.876 0.493,1.19 0.311,0.311 0.746,0.491 1.187,0.491 0.444,0 0.876,-0.18 1.19,-0.491"
           style="fill:#000000;fill-opacity:1;fill-rule:nonzero;stroke:none"
           id="path214" />
      </g>
    </g>
  </g>
</svg>
