<?xml version="1.0" encoding="UTF-8" standalone="no"?>
<svg
   xmlns:dc="http://purl.org/dc/elements/1.1/"
   xmlns:cc="http://creativecommons.org/ns#"
   xmlns:rdf="http://www.w3.org/1999/02/22-rdf-syntax-ns#"
   xmlns:svg="http://www.w3.org/2000/svg"
   xmlns="http://www.w3.org/2000/svg"
   id="svg1294"
   version="1.1"
   viewBox="0 0 16.933333 16.933333"
   height="64"
   width="64">
  <defs
     id="defs1288" />
  <metadata
     id="metadata1291">
    <rdf:RDF>
      <cc:Work
         rdf:about="">
        <dc:format>image/svg+xml</dc:format>
        <dc:type
           rdf:resource="http://purl.org/dc/dcmitype/StillImage" />
        <dc:title></dc:title>
      </cc:Work>
    </rdf:RDF>
  </metadata>
  <g
     transform="translate(0,-280.06667)"
     id="layer1">
    <g
       id="g6816"
       transform="matrix(0.16006705,0,0,-0.16006705,-8.2232846,346.17927)">
      <g
         id="g6238"
         transform="translate(121.893,371.5354)">
        <path
           d="m 0,0 c 3.065,0 5.973,-0.695 8.573,-1.934 -0.009,8.84 -7.204,16.03 -16.048,16.03 -3.15,0 -6.197,-0.912 -8.814,-2.64 -0.473,-0.311 -1.074,-0.365 -1.593,-0.139 -0.52,0.224 -0.892,0.697 -0.988,1.255 -0.585,3.388 -2.23,6.507 -4.643,8.922 V 7.387 h 3.13 c 0.601,0 1.156,-0.32 1.454,-0.84 0.301,-0.52 0.301,-1.161 0,-1.68 l -8.911,-15.432 c -0.15,-0.259 -0.363,-0.47 -0.614,-0.613 -0.251,-0.146 -0.54,-0.227 -0.84,-0.227 -0.6,0 -1.156,0.321 -1.456,0.84 l -8.909,15.432 c -0.3,0.519 -0.3,1.16 0,1.68 0.3,0.52 0.856,0.84 1.457,0.84 h 3.13 v 18.965 h -0.177 c -9.169,0 -16.628,-7.459 -16.628,-16.625 0,-0.525 0.027,-1.063 0.078,-1.603 0.05,-0.504 -0.129,-1.001 -0.49,-1.357 -0.359,-0.357 -0.861,-0.531 -1.363,-0.475 -0.441,0.047 -0.887,0.071 -1.326,0.071 -6.715,0 -12.18,-5.462 -12.18,-12.18 0,-6.715 5.465,-12.18 12.18,-12.18 h 13.437 c 3.518,3.543 8.389,5.741 13.766,5.741 3.012,0 5.951,-0.693 8.62,-2.019 C -16.675,-5.877 -8.958,0 0,0 m 31.909,-35.529 c 0,6.715 -5.465,12.18 -12.183,12.18 -0.43,0 -0.876,-0.025 -1.326,-0.074 -0.5,-0.054 -1.002,0.121 -1.36,0.475 -0.361,0.356 -0.54,0.853 -0.493,1.355 0.054,0.547 0.078,1.087 0.078,1.607 0,9.166 -7.456,16.625 -16.625,16.625 -8.113,0 -15.001,-5.794 -16.379,-13.78 -0.096,-0.558 -0.468,-1.03 -0.988,-1.257 -0.52,-0.224 -1.118,-0.172 -1.593,0.141 -2.622,1.728 -5.669,2.64 -8.815,2.64 -8.848,0 -16.047,-7.199 -16.047,-16.047 0,-8.849 7.199,-16.045 16.047,-16.045 h 16.039 v 16.858 h -3.133 c -0.6,0 -1.154,0.32 -1.454,0.84 -0.3,0.52 -0.3,1.161 0,1.681 l 8.911,15.433 c 0.3,0.52 0.854,0.84 1.454,0.84 0.601,0 1.156,-0.32 1.457,-0.84 L 4.407,-28.33 c 0.301,-0.52 0.301,-1.161 0,-1.681 -0.3,-0.52 -0.853,-0.84 -1.454,-0.84 h -3.13 v -16.858 h 19.903 c 6.718,0 12.183,5.462 12.183,12.18 M 19.986,-19.991 C 28.438,-20.13 35.27,-27.046 35.27,-35.529 35.27,-44.1 28.297,-51.07 19.726,-51.07 H -1.857 c -0.93,0 -1.681,0.75 -1.681,1.68 v 20.219 c 0,0.928 0.751,1.681 1.681,1.681 h 1.9 l -6.001,10.392 -6,-10.392 h 1.902 c 0.928,0 1.681,-0.753 1.681,-1.681 V -49.39 c 0,-0.93 -0.753,-1.68 -1.681,-1.68 h -17.719 c -10.703,0 -19.408,8.704 -19.408,19.406 0,3.784 1.089,7.317 2.969,10.306 h -10.764 c -8.568,0 -15.541,6.971 -15.541,15.541 0,8.483 6.832,15.4 15.281,15.539 v 0.005 c 0,11.021 8.967,19.986 19.989,19.986 0.656,0 1.319,-0.034 2.023,-0.103 0.86,-0.085 1.515,-0.809 1.515,-1.674 V 5.707 c 0,-0.928 -0.753,-1.681 -1.681,-1.681 h -1.9 l 5.998,-10.389 6.001,10.389 h -1.9 c -0.928,0 -1.681,0.753 -1.681,1.681 v 19.314 c 0,0.618 0.341,1.187 0.885,1.481 0.545,0.294 1.206,0.262 1.721,-0.076 3.939,-2.599 6.834,-6.523 8.169,-10.988 2.667,1.326 5.608,2.019 8.624,2.019 10.701,0 19.409,-8.705 19.409,-19.406 0,-0.65 -0.036,-1.3 -0.099,-1.941 4.94,-3.643 8.151,-9.502 8.151,-16.096 z"
           style="fill:#000000;fill-opacity:1;fill-rule:nonzero;stroke:none"
           id="path6240" />
      </g>
      <g
         id="g6242"
         transform="translate(141.6193,348.186)">
        <path
           d="M 0,0 C 6.717,0 12.182,-5.465 12.182,-12.18 12.182,-18.897 6.717,-24.36 0,-24.36 h -19.903 v 16.858 h 3.13 c 0.6,0 1.154,0.321 1.454,0.841 0.3,0.519 0.3,1.16 0,1.68 l -8.909,15.433 c -0.3,0.52 -0.856,0.841 -1.456,0.841 -0.601,0 -1.154,-0.321 -1.454,-0.841 l -8.911,-15.433 c -0.3,-0.52 -0.3,-1.161 0,-1.68 0.3,-0.52 0.853,-0.841 1.454,-0.841 h 3.132 V -24.36 h -16.038 c -8.848,0 -16.047,7.197 -16.047,16.045 0,8.848 7.199,16.047 16.047,16.047 3.146,0 6.193,-0.912 8.815,-2.639 0.475,-0.314 1.073,-0.365 1.593,-0.141 0.519,0.226 0.891,0.699 0.988,1.257 1.378,7.985 8.265,13.78 16.379,13.78 9.168,0 16.625,-7.459 16.625,-16.626 0,-0.52 -0.025,-1.06 -0.078,-1.606 -0.047,-0.502 0.132,-1 0.493,-1.356 0.358,-0.354 0.86,-0.529 1.36,-0.475 C -0.876,-0.025 -0.43,0 0,0"
           style="fill:#3ecff1;fill-opacity:1;fill-rule:nonzero;stroke:none"
           id="path6244" />
      </g>
      <g
         id="g6246"
         transform="translate(130.4656,369.6018)">
        <path
           d="m 0,0 c -2.599,1.239 -5.507,1.934 -8.573,1.934 -8.958,0 -16.674,-5.877 -19.155,-14.275 -2.668,1.326 -5.608,2.018 -8.619,2.018 -5.378,0 -10.249,-2.198 -13.767,-5.74 h -13.437 c -6.715,0 -12.18,5.465 -12.18,12.18 0,6.717 5.465,12.18 12.18,12.18 0.44,0 0.886,-0.025 1.327,-0.072 0.502,-0.056 1.004,0.119 1.362,0.475 0.361,0.357 0.54,0.854 0.491,1.358 -0.052,0.54 -0.079,1.078 -0.079,1.602 0,9.167 7.459,16.626 16.628,16.626 h 0.177 V 9.321 h -3.13 c -0.601,0 -1.156,-0.32 -1.456,-0.84 -0.301,-0.52 -0.301,-1.161 0,-1.681 l 8.908,-15.431 c 0.3,-0.52 0.856,-0.84 1.457,-0.84 0.3,0 0.589,0.081 0.84,0.226 0.251,0.144 0.464,0.354 0.614,0.614 L -27.501,6.8 c 0.3,0.52 0.3,1.161 0,1.681 -0.298,0.52 -0.854,0.84 -1.454,0.84 h -3.131 v 14.107 c 2.414,-2.416 4.058,-5.534 4.643,-8.922 0.096,-0.558 0.468,-1.031 0.988,-1.255 0.52,-0.226 1.12,-0.173 1.593,0.139 2.617,1.727 5.664,2.639 8.815,2.639 C -7.204,16.029 -0.009,8.839 0,0"
           style="fill:#f38b6c;fill-opacity:1;fill-rule:nonzero;stroke:none"
           id="path6248" />
      </g>
    </g>
  </g>
</svg>
