
<svg
   xmlns="http://www.w3.org/2000/svg"
   version="1.1"
   id="Layer_1"
   x="0px"
   y="0px"
   viewBox="0 0 1024 1024"
   xml:space="preserve"
   width="1024"
   height="1024">
    <g
   id="g3774"
   style="fill:#000000;fill-opacity:1"
   transform="matrix(12.8,0,0,12.8,-125.44,-125.44)">

	<g id="g36" style="opacity:1">
    <path d="M 54.900391 24.199219 C 51.931425 24.199219 49.13571 24.816669 46.648438 26.267578 L 46.640625 26.271484 L 46.634766 26.275391 C 44.178876 27.810322 42.31752 29.671851 40.783203 32.023438 C 39.956671 33.263236 39.333484 34.615809 38.919922 36.162109 C 38.919747 36.162721 38.920097 36.16345 38.919922 36.164062 C 38.50645 37.61191 38.300781 39.155427 38.300781 40.699219 L 38.300781 58.199219 L 38.300781 68.90625 L 38.447266 69.052734 C 40.75239 71.357858 42.655524 73.163337 43.845703 74.353516 L 44.699219 75.207031 L 44.699219 64.099609 L 44.699219 52.199219 L 44.699219 46.099609 L 44.699219 40.699219 C 44.699219 37.81033 45.638476 35.468946 47.654297 33.453125 L 47.658203 33.449219 L 47.662109 33.445312 C 49.567531 31.44462 52.011502 30.5 54.900391 30.5 C 57.78928 30.5 60.130664 31.437304 62.146484 33.453125 C 64.162305 35.468946 65.099609 37.81033 65.099609 40.699219 C 65.099609 43.576997 64.071925 45.916874 61.955078 47.9375 C 59.840317 49.956136 57.481384 50.804075 54.880859 50.900391 L 54.400391 50.917969 L 54.400391 52.800781 L 54.400391 57.5 L 54.900391 57.5 C 56.444835 57.5 57.989204 57.293504 59.529297 56.882812 L 59.537109 56.880859 L 59.546875 56.876953 C 60.906372 56.458646 62.335209 55.742902 63.660156 54.927734 L 63.662109 54.925781 C 66.032865 53.482152 67.89815 51.508423 69.333984 48.945312 C 70.777576 46.468336 71.5 43.682024 71.5 40.800781 C 71.5 37.834831 70.882204 35.033175 69.328125 32.542969 C 67.889464 30.078968 66.025142 28.215107 63.673828 26.681641 L 63.667969 26.677734 L 63.662109 26.673828 C 62.340932 25.860796 61.08615 25.233334 59.53125 24.818359 C 59.530567 24.818165 59.529979 24.816601 59.529297 24.816406 C 58.076731 24.40229 56.442193 24.199219 54.900391 24.199219 z M 54.900391 25.199219 C 56.355946 25.199219 57.916145 25.3968 59.261719 25.78125 L 59.267578 25.78125 L 59.271484 25.783203 C 60.711777 26.167281 61.85466 26.737993 63.128906 27.521484 C 65.374422 28.98638 67.108394 30.720696 68.46875 33.052734 L 68.472656 33.058594 L 68.476562 33.064453 C 69.918997 35.372348 70.5 37.969747 70.5 40.800781 C 70.5 43.517448 69.823062 46.125588 68.46875 48.447266 L 68.466797 48.451172 L 68.462891 48.455078 C 67.099392 50.889897 65.367969 52.716491 63.140625 54.072266 L 63.138672 54.074219 C 61.867368 54.85656 60.501009 55.535982 59.263672 55.917969 C 57.973406 56.261416 56.686902 56.394391 55.400391 56.433594 L 55.400391 52.800781 L 55.400391 51.800781 C 58.015153 51.607022 60.49516 50.713782 62.644531 48.662109 C 64.927685 46.482736 66.099609 43.821441 66.099609 40.699219 C 66.099609 37.588108 65.037695 34.930273 62.853516 32.746094 C 60.669336 30.561914 58.011502 29.5 54.900391 29.5 C 51.791794 29.5 49.037313 30.556271 46.943359 32.751953 C 44.762742 34.935137 43.699219 37.590612 43.699219 40.699219 L 43.699219 46.099609 L 43.699219 52.199219 L 43.699219 64.099609 L 43.699219 72.808594 C 42.542808 71.67387 41.152568 70.337709 39.300781 68.490234 L 39.300781 58.199219 L 39.300781 40.699219 C 39.300781 39.243663 39.494682 37.789121 39.880859 36.4375 L 39.882812 36.433594 L 39.882812 36.429688 C 40.26927 34.980472 40.843681 33.735456 41.615234 32.578125 L 41.617188 32.576172 L 41.619141 32.572266 C 43.081531 30.329934 44.816378 28.595308 47.152344 27.132812 C 49.465071 25.783722 52.069356 25.199219 54.900391 25.199219 z M 54.800781 35.099609 C 51.726972 35.099609 49.199219 37.625409 49.199219 40.699219 C 49.199219 43.850743 51.64188 46.405901 54.8125 46.298828 C 57.880726 46.292076 60.400391 43.768912 60.400391 40.699219 C 60.400391 37.625409 57.874591 35.099609 54.800781 35.099609 z M 54.800781 36.099609 C 57.326972 36.099609 59.400391 38.173028 59.400391 40.699219 C 59.400391 43.225409 57.326972 45.300781 54.800781 45.300781 L 54.791016 45.300781 L 54.783203 45.300781 C 52.155804 45.391381 50.199219 43.346345 50.199219 40.699219 C 50.199219 38.173028 52.274591 36.099609 54.800781 36.099609 z M 28.900391 38.199219 L 28.900391 46.699219 L 28.900391 60.394531 L 29.03125 60.537109 C 30.156749 61.764927 32.052176 63.558035 34.447266 65.953125 L 35.300781 66.806641 L 35.300781 65.599609 L 35.300781 38.199219 L 30.5 38.199219 L 28.900391 38.199219 z M 29.900391 39.199219 L 30.5 39.199219 L 34.300781 39.199219 L 34.300781 64.392578 C 32.471677 62.582908 30.811313 60.975291 29.900391 59.992188 L 29.900391 46.699219 L 29.900391 39.199219 z "
/>
  </g>
  <path d="m 34.8,65.6 c -2.4,-2.4 -4.3,-4.2 -5.4,-5.4 v -13.5 -8 h 1.1 4.3 z M 49.7,40.7 c 0,-2.8 2.3,-5.1 5.1,-5.1 2.8,0 5.1,2.3 5.1,5.1 0,2.8 -2.3,5.1 -5.1,5.1 -2.9,0.1 -5.1,-2.2 -5.1,-5.1 z m 19.2,8 c -1.4,2.5 -3.2,4.4 -5.5,5.8 -1.3,0.8 -2.7,1.5 -4,1.9 -1.5,0.4 -3,0.6 -4.5,0.6 v -4.2 -1.4 c 2.7,-0.1 5.2,-1 7.4,-3.1 2.2,-2.1 3.3,-4.6 3.3,-7.6 0,-3 -1,-5.5 -3.1,-7.6 C 60.4,31 57.9,30 54.9,30 c -3,0 -5.6,1 -7.6,3.1 -2.1,2.1 -3.1,4.6 -3.1,7.6 v 5.4 6.1 11.9 9.9 C 43,72.8 41.1,71 38.8,68.7 V 58.2 40.7 c 0,-1.5 0.2,-3 0.6,-4.4 0.4,-1.5 1,-2.8 1.8,-4 1.5,-2.3 3.3,-4.1 5.7,-5.6 2.4,-1.4 5.1,-2 8,-2 1.5,0 3.1,0.2 4.5,0.6 1.5,0.4 2.7,1 4,1.8 2.3,1.5 4.1,3.3 5.5,5.7 1.5,2.4 2.1,5.1 2.1,8 0,2.8 -0.7,5.5 -2.1,7.9 z"
   style="fill:none;fill-opacity:1" /></g>
</svg>
