<svg xmlns="http://www.w3.org/2000/svg" viewBox="0 0 300 300" width="300" height="300">
	<style>
		tspan { white-space:pre }
		.shp0 { fill: #000000 } 
	</style>
	<g >
		<path fill-rule="evenodd" class="shp0" d="M150 0C232.88 0 300 67.12 300 150C300 232.88 232.88 300 150 300C67.12 300 0 232.88 0 150C0 67.13 67.12 0 150 0ZM93.75 108.37L73.5 108.37L73.5 189C77.63 193.5 84.75 200.25 93.75 209.25L93.75 108.37ZM229.5 116.25C229.5 105.38 227.25 95.25 221.63 86.25C216.37 77.25 209.63 70.5 201 64.88C196.13 61.88 191.62 59.63 186 58.13C180.75 56.63 174.75 55.88 169.13 55.88C158.25 55.88 148.13 58.13 139.13 63.38C130.12 69 123.37 75.75 117.75 84.38C114.75 88.88 112.5 93.75 111 99.38C109.5 104.63 108.75 110.25 108.75 115.88L108.75 220.88C117.38 229.5 124.5 236.25 129 240.75L129 115.88C129 104.63 132.75 95.25 140.62 87.38C148.13 79.5 157.88 75.75 169.13 75.75C180.38 75.75 189.75 79.5 197.63 87.37C205.5 95.25 209.25 104.62 209.25 115.87C209.25 127.13 205.13 136.5 196.88 144.38C188.63 152.25 179.25 155.63 169.13 156L169.13 177C174.75 177 180.38 176.25 186 174.75C190.88 173.25 196.13 170.63 201 167.63C209.63 162.38 216.37 155.25 221.63 145.88C226.88 136.88 229.5 126.75 229.5 116.25ZM168.75 135C179.25 135 187.88 126.38 187.88 115.88C187.88 105.38 179.25 96.75 168.75 96.75C158.25 96.75 149.63 105.38 149.63 115.88C149.63 126.75 157.88 135.38 168.75 135Z" />
	</g>
</svg>