<?xml version="1.0" encoding="UTF-8" standalone="no"?>
<svg
   xmlns:dc="http://purl.org/dc/elements/1.1/"
   xmlns:cc="http://creativecommons.org/ns#"
   xmlns:rdf="http://www.w3.org/1999/02/22-rdf-syntax-ns#"
   xmlns:svg="http://www.w3.org/2000/svg"
   xmlns="http://www.w3.org/2000/svg"
   xmlns:sodipodi="http://sodipodi.sourceforge.net/DTD/sodipodi-0.dtd"
   xmlns:inkscape="http://www.inkscape.org/namespaces/inkscape"
   version="1.1"
   id="Layer_1"
   x="0px"
   y="0px"
   viewBox="0 0 1024 1024"
   xml:space="preserve"
   sodipodi:docname="parallelcoinLogo.svg"
   inkscape:version="1.0.1 (3bc2e813f5, 2020-09-07)"
   width="1024"
   height="1024"
   inkscape:export-filename="/go/src/gitlab.com/parallelcoin/parallelcoin/src/qt/res/icons/bitcoin.png"
   inkscape:export-xdpi="18.75"
   inkscape:export-ydpi="18.75"><metadata
   id="metadata3783"><rdf:RDF><cc:Work
       rdf:about=""><dc:format>image/svg+xml</dc:format><dc:type
         rdf:resource="http://purl.org/dc/dcmitype/StillImage" /><dc:title></dc:title></cc:Work></rdf:RDF></metadata>
    <defs
   id="defs3781">
	
	
</defs>
    <sodipodi:namedview
   pagecolor="#ffffff"
   bordercolor="#666666"
   borderopacity="1"
   objecttolerance="10"
   gridtolerance="10"
   guidetolerance="10"
   inkscape:pageopacity="0"
   inkscape:pageshadow="2"
   inkscape:window-width="3840"
   inkscape:window-height="2132"
   id="namedview3779"
   showgrid="false"
   inkscape:zoom="1.4142136"
   inkscape:cx="612.33738"
   inkscape:cy="539.05555"
   inkscape:window-x="1080"
   inkscape:window-y="0"
   inkscape:window-maximized="1"
   inkscape:current-layer="g3774"
   fit-margin-top="0"
   fit-margin-left="0"
   fit-margin-right="0"
   fit-margin-bottom="0"
   inkscape:pagecheckerboard="false"
   inkscape:document-rotation="0" />
    <style
   type="text/css"
   id="style3768">
	.st0{fill:#FFFFFF;}
</style>
    <g
   id="g3774"
   style="fill:#000000;fill-opacity:1"
   transform="matrix(12.8,0,0,12.8,-125.44,-125.44)">
		<path
   inkscape:connector-curvature="0"
   id="path3772"
   d="m 34.8,65.6 c -2.4,-2.4 -4.3,-4.2 -5.4,-5.4 v -13.5 -8 h 1.1 4.3 z M 49.7,40.7 c 0,-2.8 2.3,-5.1 5.1,-5.1 2.8,0 5.1,2.3 5.1,5.1 0,2.8 -2.3,5.1 -5.1,5.1 -2.9,0.1 -5.1,-2.2 -5.1,-5.1 z m 19.2,8 c -1.4,2.5 -3.2,4.4 -5.5,5.8 -1.3,0.8 -2.7,1.5 -4,1.9 -1.5,0.4 -3,0.6 -4.5,0.6 v -4.2 -1.4 c 2.7,-0.1 5.2,-1 7.4,-3.1 2.2,-2.1 3.3,-4.6 3.3,-7.6 0,-3 -1,-5.5 -3.1,-7.6 C 60.4,31 57.9,30 54.9,30 c -3,0 -5.6,1 -7.6,3.1 -2.1,2.1 -3.1,4.6 -3.1,7.6 v 5.4 6.1 11.9 9.9 C 43,72.8 41.1,71 38.8,68.7 V 58.2 40.7 c 0,-1.5 0.2,-3 0.6,-4.4 0.4,-1.5 1,-2.8 1.8,-4 1.5,-2.3 3.3,-4.1 5.7,-5.6 2.4,-1.4 5.1,-2 8,-2 1.5,0 3.1,0.2 4.5,0.6 1.5,0.4 2.7,1 4,1.8 2.3,1.5 4.1,3.3 5.5,5.7 1.5,2.4 2.1,5.1 2.1,8 0,2.8 -0.7,5.5 -2.1,7.9 z"
   style="fill:#000000;fill-opacity:1"
   sodipodi:nodetypes="cccccccssscsccccccsssscsccccccscccscccsc" />
	<path
   inkscape:connector-curvature="0"
   id="path10"
   d="m 34.8,65.6 c -2.4,-2.4 -4.3,-4.2 -5.4,-5.4 v -13.5 -8 h 1.1 4.3 z M 49.7,40.7 c 0,-2.8 2.3,-5.1 5.1,-5.1 2.8,0 5.1,2.3 5.1,5.1 0,2.8 -2.3,5.1 -5.1,5.1 -2.9,0.1 -5.1,-2.2 -5.1,-5.1 z m 19.2,8 c -1.4,2.5 -3.2,4.4 -5.5,5.8 -1.3,0.8 -2.7,1.5 -4,1.9 -1.5,0.4 -3,0.6 -4.5,0.6 v -4.2 -1.4 c 2.7,-0.1 5.2,-1 7.4,-3.1 2.2,-2.1 3.3,-4.6 3.3,-7.6 0,-3 -1,-5.5 -3.1,-7.6 C 60.4,31 57.9,30 54.9,30 c -3,0 -5.6,1 -7.6,3.1 -2.1,2.1 -3.1,4.6 -3.1,7.6 v 5.4 6.1 11.9 9.9 C 43,72.8 41.1,71 38.8,68.7 V 58.2 40.7 c 0,-1.5 0.2,-3 0.6,-4.4 0.4,-1.5 1,-2.8 1.8,-4 1.5,-2.3 3.3,-4.1 5.7,-5.6 2.4,-1.4 5.1,-2 8,-2 1.5,0 3.1,0.2 4.5,0.6 1.5,0.4 2.7,1 4,1.8 2.3,1.5 4.1,3.3 5.5,5.7 1.5,2.4 2.1,5.1 2.1,8 0,2.8 -0.7,5.5 -2.1,7.9 z"
   style="fill:#000000;fill-opacity:1"
   sodipodi:nodetypes="cccccccssscsccccccsssscsccccccscccscccsc" /><path
   inkscape:connector-curvature="0"
   id="path12"
   d="m 34.8,65.6 c -2.4,-2.4 -4.3,-4.2 -5.4,-5.4 v -13.5 -8 h 1.1 4.3 z M 49.7,40.7 c 0,-2.8 2.3,-5.1 5.1,-5.1 2.8,0 5.1,2.3 5.1,5.1 0,2.8 -2.3,5.1 -5.1,5.1 -2.9,0.1 -5.1,-2.2 -5.1,-5.1 z m 19.2,8 c -1.4,2.5 -3.2,4.4 -5.5,5.8 -1.3,0.8 -2.7,1.5 -4,1.9 -1.5,0.4 -3,0.6 -4.5,0.6 v -4.2 -1.4 c 2.7,-0.1 5.2,-1 7.4,-3.1 2.2,-2.1 3.3,-4.6 3.3,-7.6 0,-3 -1,-5.5 -3.1,-7.6 C 60.4,31 57.9,30 54.9,30 c -3,0 -5.6,1 -7.6,3.1 -2.1,2.1 -3.1,4.6 -3.1,7.6 v 5.4 6.1 11.9 9.9 C 43,72.8 41.1,71 38.8,68.7 V 58.2 40.7 c 0,-1.5 0.2,-3 0.6,-4.4 0.4,-1.5 1,-2.8 1.8,-4 1.5,-2.3 3.3,-4.1 5.7,-5.6 2.4,-1.4 5.1,-2 8,-2 1.5,0 3.1,0.2 4.5,0.6 1.5,0.4 2.7,1 4,1.8 2.3,1.5 4.1,3.3 5.5,5.7 1.5,2.4 2.1,5.1 2.1,8 0,2.8 -0.7,5.5 -2.1,7.9 z"
   style="fill:#000000;fill-opacity:1"
   sodipodi:nodetypes="cccccccssscsccccccsssscsccccccscccscccsc" /><path
   inkscape:connector-curvature="0"
   id="path14"
   d="m 34.8,65.6 c -2.4,-2.4 -4.3,-4.2 -5.4,-5.4 v -13.5 -8 h 1.1 4.3 z M 49.7,40.7 c 0,-2.8 2.3,-5.1 5.1,-5.1 2.8,0 5.1,2.3 5.1,5.1 0,2.8 -2.3,5.1 -5.1,5.1 -2.9,0.1 -5.1,-2.2 -5.1,-5.1 z m 19.2,8 c -1.4,2.5 -3.2,4.4 -5.5,5.8 -1.3,0.8 -2.7,1.5 -4,1.9 -1.5,0.4 -3,0.6 -4.5,0.6 v -4.2 -1.4 c 2.7,-0.1 5.2,-1 7.4,-3.1 2.2,-2.1 3.3,-4.6 3.3,-7.6 0,-3 -1,-5.5 -3.1,-7.6 C 60.4,31 57.9,30 54.9,30 c -3,0 -5.6,1 -7.6,3.1 -2.1,2.1 -3.1,4.6 -3.1,7.6 v 5.4 6.1 11.9 9.9 C 43,72.8 41.1,71 38.8,68.7 V 58.2 40.7 c 0,-1.5 0.2,-3 0.6,-4.4 0.4,-1.5 1,-2.8 1.8,-4 1.5,-2.3 3.3,-4.1 5.7,-5.6 2.4,-1.4 5.1,-2 8,-2 1.5,0 3.1,0.2 4.5,0.6 1.5,0.4 2.7,1 4,1.8 2.3,1.5 4.1,3.3 5.5,5.7 1.5,2.4 2.1,5.1 2.1,8 0,2.8 -0.7,5.5 -2.1,7.9 z"
   style="fill:#000000;fill-opacity:1"
   sodipodi:nodetypes="cccccccssscsccccccsssscsccccccscccscccsc" /><path
   inkscape:connector-curvature="0"
   id="path16"
   d="m 34.8,65.6 c -2.4,-2.4 -4.3,-4.2 -5.4,-5.4 v -13.5 -8 h 1.1 4.3 z M 49.7,40.7 c 0,-2.8 2.3,-5.1 5.1,-5.1 2.8,0 5.1,2.3 5.1,5.1 0,2.8 -2.3,5.1 -5.1,5.1 -2.9,0.1 -5.1,-2.2 -5.1,-5.1 z m 19.2,8 c -1.4,2.5 -3.2,4.4 -5.5,5.8 -1.3,0.8 -2.7,1.5 -4,1.9 -1.5,0.4 -3,0.6 -4.5,0.6 v -4.2 -1.4 c 2.7,-0.1 5.2,-1 7.4,-3.1 2.2,-2.1 3.3,-4.6 3.3,-7.6 0,-3 -1,-5.5 -3.1,-7.6 C 60.4,31 57.9,30 54.9,30 c -3,0 -5.6,1 -7.6,3.1 -2.1,2.1 -3.1,4.6 -3.1,7.6 v 5.4 6.1 11.9 9.9 C 43,72.8 41.1,71 38.8,68.7 V 58.2 40.7 c 0,-1.5 0.2,-3 0.6,-4.4 0.4,-1.5 1,-2.8 1.8,-4 1.5,-2.3 3.3,-4.1 5.7,-5.6 2.4,-1.4 5.1,-2 8,-2 1.5,0 3.1,0.2 4.5,0.6 1.5,0.4 2.7,1 4,1.8 2.3,1.5 4.1,3.3 5.5,5.7 1.5,2.4 2.1,5.1 2.1,8 0,2.8 -0.7,5.5 -2.1,7.9 z"
   style="fill:#000000;fill-opacity:1"
   sodipodi:nodetypes="cccccccssscsccccccsssscsccccccscccscccsc" /></g>
    </svg>
