<?xml version="1.0" encoding="UTF-8" standalone="no"?>
<svg
   xmlns:dc="http://purl.org/dc/elements/1.1/"
   xmlns:cc="http://creativecommons.org/ns#"
   xmlns:rdf="http://www.w3.org/1999/02/22-rdf-syntax-ns#"
   xmlns:svg="http://www.w3.org/2000/svg"
   xmlns="http://www.w3.org/2000/svg"
   version="1.1"
   id="Layer_1"
   x="0px"
   y="0px"
   viewBox="0 0 1024 1024"
   xml:space="preserve"
   width="1024"
   height="1024"><metadata
   id="metadata3783"><rdf:RDF><cc:Work
       rdf:about=""><dc:format>image/svg+xml</dc:format><dc:type
         rdf:resource="http://purl.org/dc/dcmitype/StillImage" /><dc:title></dc:title></cc:Work></rdf:RDF></metadata>
    <defs
   id="defs3781">
	
	
</defs>
    
    <style
   type="text/css"
   id="style3768">
	.st0{fill:#FFFFFF;}
</style>
    <g
   id="g3774"
   style="fill:#000000;fill-opacity:1"
   transform="matrix(12.8,0,0,12.8,-125.44,-125.44)">
		<path
   id="path3772"
   d="m 34.8,65.6 c -2.4,-2.4 -4.3,-4.2 -5.4,-5.4 v -13.5 -8 h 1.1 4.3 z M 49.7,40.7 c 0,-2.8 2.3,-5.1 5.1,-5.1 2.8,0 5.1,2.3 5.1,5.1 0,2.8 -2.3,5.1 -5.1,5.1 -2.9,0.1 -5.1,-2.2 -5.1,-5.1 z m 19.2,8 c -1.4,2.5 -3.2,4.4 -5.5,5.8 -1.3,0.8 -2.7,1.5 -4,1.9 -1.5,0.4 -3,0.6 -4.5,0.6 v -4.2 -1.4 c 2.7,-0.1 5.2,-1 7.4,-3.1 2.2,-2.1 3.3,-4.6 3.3,-7.6 0,-3 -1,-5.5 -3.1,-7.6 C 60.4,31 57.9,30 54.9,30 c -3,0 -5.6,1 -7.6,3.1 -2.1,2.1 -3.1,4.6 -3.1,7.6 v 5.4 6.1 11.9 9.9 C 43,72.8 41.1,71 38.8,68.7 V 58.2 40.7 c 0,-1.5 0.2,-3 0.6,-4.4 0.4,-1.5 1,-2.8 1.8,-4 1.5,-2.3 3.3,-4.1 5.7,-5.6 2.4,-1.4 5.1,-2 8,-2 1.5,0 3.1,0.2 4.5,0.6 1.5,0.4 2.7,1 4,1.8 2.3,1.5 4.1,3.3 5.5,5.7 1.5,2.4 2.1,5.1 2.1,8 0,2.8 -0.7,5.5 -2.1,7.9 z"
   style="fill:#000000;fill-opacity:1" />
	<path
   id="path16"
   d="m 34.8,65.6 c -2.4,-2.4 -4.3,-4.2 -5.4,-5.4 v -13.5 -8 h 1.1 4.3 z M 49.7,40.7 c 0,-2.8 2.3,-5.1 5.1,-5.1 2.8,0 5.1,2.3 5.1,5.1 0,2.8 -2.3,5.1 -5.1,5.1 -2.9,0.1 -5.1,-2.2 -5.1,-5.1 z m 19.2,8 c -1.4,2.5 -3.2,4.4 -5.5,5.8 -1.3,0.8 -2.7,1.5 -4,1.9 -1.5,0.4 -3,0.6 -4.5,0.6 v -4.2 -1.4 c 2.7,-0.1 5.2,-1 7.4,-3.1 2.2,-2.1 3.3,-4.6 3.3,-7.6 0,-3 -1,-5.5 -3.1,-7.6 C 60.4,31 57.9,30 54.9,30 c -3,0 -5.6,1 -7.6,3.1 -2.1,2.1 -3.1,4.6 -3.1,7.6 v 5.4 6.1 11.9 9.9 C 43,72.8 41.1,71 38.8,68.7 V 58.2 40.7 c 0,-1.5 0.2,-3 0.6,-4.4 0.4,-1.5 1,-2.8 1.8,-4 1.5,-2.3 3.3,-4.1 5.7,-5.6 2.4,-1.4 5.1,-2 8,-2 1.5,0 3.1,0.2 4.5,0.6 1.5,0.4 2.7,1 4,1.8 2.3,1.5 4.1,3.3 5.5,5.7 1.5,2.4 2.1,5.1 2.1,8 0,2.8 -0.7,5.5 -2.1,7.9 z"
   style="fill:none;fill-opacity:1" /></g>
    </svg>
